<?xml version="1.0" encoding="UTF-8" standalone="no"?>
<svg
   xmlns:dc="http://purl.org/dc/elements/1.1/"
   xmlns:cc="http://creativecommons.org/ns#"
   xmlns:rdf="http://www.w3.org/1999/02/22-rdf-syntax-ns#"
   xmlns:svg="http://www.w3.org/2000/svg"
   xmlns="http://www.w3.org/2000/svg"
   xmlns:sodipodi="http://sodipodi.sourceforge.net/DTD/sodipodi-0.dtd"
   xmlns:inkscape="http://www.inkscape.org/namespaces/inkscape"
   version="1.0"
   inkscape:output_extension="org.inkscape.output.svg.inkscape"
   sodipodi:docname="Latin capital letter B with hook.svg"
   inkscape:version="1.0beta1 (fe3e306, 2019-09-17)"
   sodipodi:version="0.32"
   id="svg2"
   viewBox="0 -410 225.47709 362.65218"
   height="439"
   width="292.82739">
  <metadata
     id="metadata15">
    <rdf:RDF>
      <cc:Work
         rdf:about="">
        <dc:format>image/svg+xml</dc:format>
        <dc:type
           rdf:resource="http://purl.org/dc/dcmitype/StillImage" />
        <dc:title></dc:title>
      </cc:Work>
    </rdf:RDF>
  </metadata>
  <defs
     id="defs13" />
  <sodipodi:namedview
     inkscape:document-rotation="0"
     fit-margin-bottom="0"
     fit-margin-right="0"
     fit-margin-left="0"
     fit-margin-top="0"
     inkscape:window-maximized="0"
     inkscape:guide-bbox="true"
     showguides="true"
     showgrid="false"
     inkscape:showpageshadow="false"
     height="2300px"
     width="4000px"
     inkscape:current-layer="svg2"
     inkscape:window-y="22"
     inkscape:window-x="0"
     inkscape:cy="89.635041"
     inkscape:cx="68.601382"
     inkscape:zoom="0.56999542"
     id="base"
     pagecolor="#ffffff"
     bordercolor="#666666"
     borderopacity="1.0"
     objecttolerance="10.0"
     gridtolerance="10.0"
     guidetolerance="10.0"
     inkscape:pageopacity="0.0"
     inkscape:pageshadow="2"
     inkscape:window-width="1280"
     inkscape:window-height="752" />
  <text
     id="text2171"
     y="-526.9325"
     x="-406.08694"
     style="font-style:normal;font-weight:normal;line-height:0%;font-family:Lello;fill:#000000;fill-opacity:1;stroke:none"
     xml:space="preserve"><tspan
       style="font-size:2.4px;line-height:1.25"
       y="-526.9325"
       x="-406.08694"
       id="tspan2173"
       sodipodi:role="line"> </tspan></text>
  <text
     id="text2990"
     y="-143.47166"
     x="40.912724"
     style="font-style:normal;font-weight:normal;line-height:0%;font-family:sans-serif;letter-spacing:0px;word-spacing:0px;fill:#000000;fill-opacity:1;stroke:none"
     xml:space="preserve"><tspan
       style="font-size:33.0435px;line-height:1.25;font-family:sans-serif"
       y="-143.47166"
       x="40.912724"
       id="tspan2992"
       sodipodi:role="line"> </tspan></text>
  <path
     sodipodi:nodetypes="csssssssscsssssccccccccsccsccccccccccccccccccccccsccc"
     inkscape:connector-curvature="0"
     id="path3271"
     d="m 53.085723,-339.47282 c -12.409419,0 -25.624952,2.15949 -35.883152,9.00951 -7.2829607,4.86328 -13.4476033,11.91851 -18.12228323,19.43886 -3.08436007,4.96188 -5.24766707,10.632 -6.22146747,16.39266 -1.4631801,8.65557 -1.6110737,17.86909 0.7228261,26.33152 3.7396403,13.55946 9.4711945,28.61956 20.6521746,36.78669 4.48686,3.27741 12.084555,3.29493 16.650815,0.12907 4.21504,-2.92235 6.07816,-9.36228 5.29212,-14.4307 -0.66862,-4.31134 -4.207017,-8.22661 -8.002718,-10.37772 -3.928959,-2.22665 -9.876268,-1.60184 -13.449728,-1.60055 -2.47152,8.1e-4 -5.6140757,0.19722 -7.1508156,-1.98777 -2.1147,-3.00676 -4.2760426,-8.45899 -5.0597827,-13.0625 -1.1240796,-6.6028 -0.8162243,-13.55369 0.6711957,-20.08424 1.1984201,-5.26173 3.3717946,-10.42449 6.5054349,-14.81793 4.3485797,-6.09685 10.1034447,-11.53174 16.4959237,-15.2568 8.524641,-4.96756 20.528276,-5.59107 29.067936,-5.65353 3.22684,1.6e-4 5.735257,1.02851 7.563859,3.07201 1.828543,1.93634 3.192429,4.35008 4.052989,7.25408 0.919401,2.75858 1.431724,5.65053 1.574728,8.69973 v 5.65353 c 0.01619,0.97569 0.02577,2.0068 0.02577,3.07201 v 141.49321 c -6.6e-5,12.36982 -1.243501,20.37683 -3.717391,24.03397 -3.8723,5.80844 -10.420756,8.72554 -19.671155,8.72554 h -8.235055 v 5.96332 H 140.10882 c 24.5243,0 42.85738,-2.31907 55.01223,-6.9443 11.18638,-4.30253 20.34218,-11.18657 27.44158,-20.65217 7.42165,-9.89579 11.12612,-20.65213 11.12636,-32.26902 -2.4e-4,-14.30586 -5.2106,-26.40028 -15.64402,-36.2962 -7.52966,-7.09908 -18.88404,-12.26212 -34.05028,-15.48913 26.35283,-8.49739 39.52288,-24.72654 39.5231,-48.71332 -2.2e-4,-14.19819 -4.87499,-26.24528 -14.66304,-36.1413 -8.71284,-8.71244 -20.40281,-14.85644 -35.03125,-18.40625 -10.75651,-2.5813 -24.88173,-3.87207 -42.41441,-3.87228 z m 75.406247,10.81657 c 16.45705,2.1e-4 30.27249,3.48957 41.45924,10.48098 13.23013,8.28257 19.85172,20.235 19.85191,35.83152 -1.9e-4,8.28253 -2.10414,15.90663 -6.29892,22.8981 -8.28256,13.76824 -26.13807,20.6523 -53.56657,20.65217 -12.36991,1.3e-4 -22.52819,-0.73992 -30.487775,-2.24592 v -84.08016 c 8.604965,-2.36618 18.285655,-3.53648 29.042115,-3.53669 z m -0.49048,100.98913 c 15.38141,1.1e-4 28.28901,2.27186 38.72282,6.78941 19.68391,8.49761 29.53242,22.86375 29.53261,43.08559 -1.9e-4,15.38161 -6.40666,27.14043 -19.20652,35.31522 -10.86407,6.88407 -24.41705,10.32611 -40.65897,10.32609 -12.15479,2e-5 -24.46433,-1.43274 -36.941575,-4.33696 v -89.70788 c 5.270505,-0.96797 14.783405,-1.47136 28.551635,-1.47147 z"
     style="font-style:normal;font-weight:normal;font-size:330.435px;line-height:125%;font-family:'Times New Roman';-inkscape-font-specification:'Times New Roman';letter-spacing:0px;word-spacing:0px;fill:#000000;fill-opacity:1;stroke:none;stroke-width:0.826087" />
  <text
     id="text2171-2"
     y="-305.81763"
     x="-313.47861"
     style="font-style:normal;font-weight:normal;line-height:0%;font-family:Lello;fill:#000000;fill-opacity:1;stroke:none"
     xml:space="preserve"><tspan
       style="font-size:2.4px;line-height:1.25"
       y="-305.81763"
       x="-313.47861"
       id="tspan2173-3"
       sodipodi:role="line"> </tspan></text>
  <g
     style="fill:#000000"
     id="g2993"
     transform="matrix(0.2,0,0,0.2,-320.60546,-116.53526)" />
</svg>
